<svg xmlns="http://www.w3.org/2000/svg" viewBox="0 0 27.4 27.4"><g fill="#d1d1d1"><path d="M6.7 4.1L5.6 2.6C7.9 1 10.6.1 13.4 0v1.8c-2.4 0-4.7.8-6.7 2.3z"/><path opacity=".9" d="M2.4 10L.7 9.5c.9-2.7 2.7-5.2 5-6.8l1.1 1.4C4.7 5.5 3.1 7.6 2.4 10z"/><path opacity=".8" d="M.7 17.9c-.5-1.3-.7-2.8-.7-4.2 0-1.4.2-2.9.7-4.2l1.7.5c-.4 1.2-.6 2.4-.6 3.7 0 1.3.2 2.5.6 3.7l-1.7.5z"/><path opacity=".7" d="M5.6 24.8c-2.3-1.7-4.1-4.1-5-6.9l1.7-.6c.8 2.4 2.3 4.5 4.3 6l-1 1.5z"/><path opacity=".6" d="M13.7 27.4c-2.9 0-5.7-.9-8.1-2.6l1.1-1.4c2 1.5 4.5 2.3 7 2.3v1.7z"/><path opacity=".5" d="M13.7 27.4v-1.8c2.5 0 5-.8 7-2.3l1.1 1.4c-2.4 1.8-5.2 2.7-8.1 2.7z"/><path opacity=".4" d="M21.8 24.8l-1.1-1.4c2-1.5 3.6-3.6 4.3-6l1.7.6c-.9 2.7-2.6 5.1-4.9 6.8z"/><path opacity=".3" d="M26.7 17.9l-1.7-.5c.4-1.2.6-2.4.6-3.7 0-1.3-.2-2.5-.6-3.7l1.7-.6c.4 1.4.7 2.8.7 4.2 0 1.5-.2 3-.7 4.3z"/><path opacity=".2" d="M25 10c-.8-2.4-2.3-4.5-4.3-6l1.1-1.4c2.3 1.7 4.1 4.1 5 6.8L25 10z"/><path opacity=".1" d="M20.7 4.1c-2.1-1.5-4.7-2.3-7.3-2.3V0c3-.1 5.9.8 8.4 2.6l-1.1 1.5z"/></g></svg>