<svg viewBox="0 0 16 16" xmlns="http://www.w3.org/2000/svg"><path d="M8 0a8 8 0 1 0 0 16A8 8 0 0 0 8 0zM5.918 4.346L7.61 2.655a.564.564 0 0 1 .4-.166h.008a.56.56 0 0 1 .4.166l1.692 1.69a.566.566 0 1 1-.801.802l-.748-.748v3.035a.566.566 0 0 1-1.132 0V4.438l-.71.709a.565.565 0 0 1-.8 0 .566.566 0 0 1 0-.801zm6.433 6.818c0 .764-.75 1.363-1.707 1.363H5.357c-.957 0-1.707-.599-1.707-1.363v-3.68c0-.765.75-1.364 1.707-1.364h.713a1.412 1.412 0 0 0 .496 0h.032v1.106H5.357c-.388 0-.6.193-.6.257v3.68c0 .065.212.258.6.258h5.287c.387 0 .6-.194.6-.257v-3.68c0-.065-.213-.258-.6-.258H9.39V6.12h.077c.079.013.16.023.241.023.084 0 .167-.009.249-.023h.686c.957 0 1.707.599 1.707 1.363v3.68z" fill="#fff" fill-rule="evenodd"/></svg>